<svg width="36" height="36" viewBox="0 0 36 36" fill="none" xmlns="http://www.w3.org/2000/svg">
<path d="M18.0001 25.875C17.7019 25.8709 17.416 25.7556 17.1985 25.5515L5.94852 14.3015C5.76912 14.083 5.67744 13.8055 5.69131 13.523C5.70519 13.2406 5.82361 12.9734 6.02357 12.7735C6.22352 12.5735 6.49069 12.4551 6.77313 12.4412C7.05556 12.4274 7.33306 12.519 7.55164 12.6984L18.0001 23.1609L28.4485 12.6984C28.6671 12.519 28.9446 12.4274 29.227 12.4412C29.5095 12.4551 29.7766 12.5735 29.9766 12.7735C30.1765 12.9734 30.295 13.2406 30.3088 13.523C30.3227 13.8055 30.231 14.083 30.0516 14.3015L18.8016 25.5515C18.5842 25.7556 18.2983 25.8709 18.0001 25.875Z" fill="#EF5F21"/>
</svg>
