<?xml version="1.0" encoding="UTF-8"?>
<!DOCTYPE svg PUBLIC "-//W3C//DTD SVG 1.1//EN" "http://www.w3.org/Graphics/SVG/1.1/DTD/svg11.dtd">
<svg version="1.1" xmlns="http://www.w3.org/2000/svg" xmlns:xlink="http://www.w3.org/1999/xlink" x="0" y="0" width="951" height="720" viewBox="0, 0, 951, 720">
  <g id="Layer_1">
    <path d="M948.639,589.995 C943.446,665.727 773.346,715.74 568.71,701.7 C364.074,687.663 202.398,614.889 207.594,539.16 C212.79,463.422 382.887,413.409 587.526,427.446 C792.162,441.486 953.835,514.26 948.639,589.995" fill="#574A34"/>
    <g>
      <path d="M894,314.25 C894,455.496 696.222,570 452.25,570 C208.278,570 10.5,455.496 10.5,314.25 C10.5,173.004 208.278,58.5 452.25,58.5 C696.222,58.5 894,173.004 894,314.25 z" fill="#B37E44"/>
      <path d="M894,314.25 C894,455.496 696.222,570 452.25,570 C208.278,570 10.5,455.496 10.5,314.25 C10.5,173.004 208.278,58.5 452.25,58.5 C696.222,58.5 894,173.004 894,314.25 z" fill-opacity="0" stroke="#000000" stroke-width="14.424"/>
    </g>
    <g>
      <path d="M849,421.341 C849,546.345 676.743,647.685 464.25,647.685 C251.76,647.685 79.5,546.345 79.5,421.341 C79.5,296.337 251.76,195 464.25,195 C676.743,195 849,296.337 849,421.341 z" fill="#B37E44"/>
      <path d="M849,421.341 C849,546.345 676.743,647.685 464.25,647.685 C251.76,647.685 79.5,546.345 79.5,421.341 C79.5,296.337 251.76,195 464.25,195 C676.743,195 849,296.337 849,421.341 z" fill-opacity="0" stroke="#000000" stroke-width="9"/>
    </g>
    <path d="M25.5,322.5 C27.687,311.898 31.338,301.647 35.499,291.666 C39.705,281.688 44.619,272.013 50.103,262.674 C61.068,243.984 74.331,226.662 89.235,210.915 C119.196,179.481 155.643,154.665 194.697,135.93 C233.814,117.138 275.532,104.181 317.952,95.394 C339.18,91.005 360.615,87.657 382.137,85.161 C387.519,84.54 392.907,83.973 398.301,83.454 L406.392,82.716 C409.188,82.446 411.858,82.446 414.582,82.35 C425.427,82.086 436.266,82.143 447.102,82.398 C490.425,83.646 533.664,88.095 576.267,96.072 C618.828,104.112 660.849,115.767 700.74,132.828 C740.526,149.877 778.341,172.572 809.637,202.731 C825.21,217.824 839.052,234.72 850.494,253.122 C861.96,271.506 871.008,291.366 877.5,312 C870.774,291.438 861.516,271.716 849.873,253.512 C838.254,235.296 824.283,218.628 808.62,203.79 C777.342,173.94 739.647,151.482 699.957,134.664 C660.174,117.831 618.258,106.374 575.805,98.532 C533.319,90.741 490.191,86.493 447.024,85.389 C436.233,85.095 425.433,84.996 414.648,85.218 C411.969,85.302 409.224,85.299 406.632,85.542 L398.562,86.247 C393.186,86.745 387.816,87.285 382.449,87.888 C360.987,90.291 339.618,93.546 318.453,97.836 C276.159,106.422 234.567,119.169 195.555,137.724 C156.597,156.216 120.264,180.795 90.288,211.926 C75.279,227.43 61.875,244.533 50.73,263.046 C45.156,272.298 40.146,281.898 35.835,291.807 C31.569,301.728 27.807,311.925 25.5,322.5" fill="#C9A574"/>
    <path d="M39,346.5 C41.067,336.123 44.508,326.064 48.438,316.251 C52.41,306.444 57.051,296.907 62.241,287.679 C72.627,269.223 85.2,252.006 99.438,236.307 C128.007,204.915 163.116,179.889 200.946,160.872 C238.854,141.825 279.498,128.64 320.886,119.694 C341.595,115.206 362.529,111.819 383.559,109.278 C388.815,108.639 394.08,108.066 399.351,107.538 L407.256,106.791 C408.528,106.656 409.956,106.545 411.282,106.515 L415.26,106.386 C425.865,106.107 436.458,106.161 447.051,106.416 C489.399,107.667 531.66,112.173 573.246,120.273 C614.793,128.43 655.764,140.277 694.491,157.566 C733.119,174.84 769.626,197.814 799.542,227.979 C814.431,243.066 827.574,259.881 838.431,278.067 C849.297,296.244 857.838,315.774 864,336 C857.607,315.846 848.853,296.442 837.813,278.439 C826.782,260.43 813.498,243.84 798.519,228.996 C768.615,199.14 732.225,176.4 693.693,159.363 C655.068,142.296 614.208,130.656 572.781,122.688 C531.312,114.771 489.162,110.466 446.973,109.362 C436.428,109.065 425.871,108.972 415.332,109.206 L411.387,109.32 C410.07,109.347 408.861,109.434 407.502,109.569 L399.618,110.286 C394.365,110.79 389.118,111.342 383.874,111.957 C362.913,114.411 342.042,117.702 321.399,122.091 C280.14,130.842 239.625,143.811 201.822,162.621 C164.088,181.395 129.09,206.184 100.494,237.276 C86.151,252.741 73.431,269.745 62.862,288.033 C57.585,297.18 52.848,306.642 48.768,316.386 C44.736,326.142 41.187,336.15 39,346.5" fill="#C9A574"/>
    <path d="M52.5,376.746 C54.45,366.597 57.693,356.733 61.392,347.088 C65.136,337.452 69.513,328.062 74.415,318.954 C84.222,300.735 96.141,283.662 109.683,267.996 C136.89,236.706 170.58,211.389 207.216,192.144 C243.894,172.827 283.446,159.375 323.808,150.264 C344.001,145.692 364.434,142.23 384.969,139.647 C390.102,138.993 395.247,138.411 400.392,137.88 L408.117,137.115 C410.67,136.812 413.4,136.749 415.938,136.671 C426.297,136.377 436.65,136.428 447,136.683 C488.379,137.931 529.668,142.506 570.24,150.735 C610.77,159.021 650.688,171.081 688.236,188.613 C725.7,206.115 760.869,229.386 789.399,259.53 C803.598,274.605 816.072,291.309 826.329,309.282 C836.613,327.24 844.662,346.431 850.5,366.246 C844.434,346.5 836.175,327.426 825.714,309.636 C815.283,291.834 802.668,275.346 788.37,260.508 C759.843,230.664 724.791,207.633 687.423,190.362 C649.974,173.058 610.176,161.205 569.76,153.108 C529.308,145.062 488.136,140.685 446.922,139.578 C436.62,139.284 426.303,139.194 416.013,139.443 C413.388,139.521 410.946,139.557 408.366,139.848 L400.668,140.577 C395.538,141.09 390.411,141.651 385.296,142.281 C364.827,144.774 344.46,148.143 324.333,152.616 C284.106,161.532 244.683,174.771 208.11,193.848 C171.57,212.85 137.985,237.93 110.745,268.926 C97.092,284.361 85.02,301.233 75.033,319.293 C70.044,328.32 65.568,337.638 61.719,347.217 C57.918,356.805 54.567,366.621 52.5,376.746" fill="#C9A574"/>
    <g>
      <path d="M484.107,337.803 C484.107,337.803 262.755,347.025 275.052,200.994 C275.052,200.994 276.087,104.808 414.285,57.66 C414.285,57.66 462.183,37.602 467.061,14.838 C467.061,14.838 495.303,42.543 541.107,49.53 C637.032,64.164 712.38,118.755 705.204,216.108 C705.204,216.108 707.766,353.175 484.107,337.803 z" fill="#000000"/>
      <path d="M484.107,337.803 C484.107,337.803 262.755,347.025 275.052,200.994 C275.052,200.994 276.087,104.808 414.285,57.66 C414.285,57.66 462.183,37.602 467.061,14.838 C467.061,14.838 495.303,42.543 541.107,49.53 C637.032,64.164 712.38,118.755 705.204,216.108 C705.204,216.108 707.766,353.175 484.107,337.803 z" fill-opacity="0" stroke="#000000" stroke-width="24" stroke-linecap="round" stroke-linejoin="round"/>
    </g>
    <path d="M467.625,17.679 C467.625,17.679 495.201,78.219 592.371,87.687" fill="#000000"/>
    <path d="M478.521,12.651 C478.533,12.822 478.827,13.536 479.043,14.055 L479.832,15.801 C480.396,16.986 481.014,18.189 481.674,19.389 C482.991,21.789 484.464,24.174 486.042,26.511 C489.204,31.188 492.804,35.688 496.746,39.936 C504.627,48.447 513.855,55.974 523.974,62.358 C544.236,75.195 567.93,83.298 592.371,87.687 C567.555,87.255 542.235,83.133 518.439,73.002 C506.562,67.959 495.123,61.425 484.644,53.262 C479.403,49.182 474.414,44.697 469.749,39.762 C467.421,37.29 465.168,34.71 463.02,31.971 C461.946,30.6 460.896,29.19 459.87,27.72 L458.34,25.434 C457.812,24.594 457.38,23.937 456.732,22.707 L454.944,19.332 C451.71,13.218 454.044,5.634 460.161,2.4 C466.278,-0.837 473.859,1.497 477.093,7.614 C477.939,9.207 478.404,10.962 478.521,12.651" fill="#000000"/>
    <path d="M470.094,22.395 C470.094,22.395 453.567,95.403 501.858,118.623" fill="#000000"/>
    <path d="M481.806,25.011 C481.215,26.574 480.585,28.764 480.045,30.735 C479.499,32.763 478.992,34.824 478.539,36.906 C477.627,41.064 476.895,45.288 476.37,49.536 C475.329,58.029 475.068,66.651 476.07,75.135 C477.075,83.604 479.343,91.995 483.582,99.573 C487.779,107.154 494.073,113.793 501.858,118.623 C493.236,115.617 485.112,110.298 478.716,103.083 C472.278,95.901 467.619,87.102 464.397,77.928 C461.169,68.721 459.321,59.097 458.37,49.428 C457.899,44.586 457.662,39.726 457.641,34.842 C457.629,32.397 457.677,29.949 457.782,27.48 C457.908,24.954 458.022,22.659 458.382,19.776 L458.454,19.215 C459.288,12.573 465.342,7.866 471.984,8.7 C478.62,9.531 483.33,15.588 482.496,22.227 C482.379,23.181 482.127,24.15 481.806,25.011" fill="#000000"/>
    <path d="M466.581,25.458 C466.581,25.458 420.294,80.157 404.619,118.272" fill="#000000"/>
    <path d="M475.746,33.204 C469.23,39.438 462.66,46.122 456.294,52.803 C449.913,59.514 443.652,66.357 437.571,73.362 C431.493,80.367 425.586,87.531 419.997,94.95 C414.42,102.378 409.122,110.04 404.619,118.272 C407.274,109.263 410.892,100.479 414.843,91.878 C418.812,83.274 423.159,74.838 427.713,66.519 C432.273,58.197 437.052,49.995 441.99,41.877 C446.958,33.738 451.968,25.788 457.416,17.712 C461.145,12.186 468.648,10.728 474.174,14.457 C479.7,18.186 481.155,25.689 477.429,31.215 C476.949,31.926 476.406,32.568 475.812,33.141 L475.746,33.204" fill="#000000"/>
    <g>
      <path d="M484.107,337.803 C484.107,337.803 262.755,347.025 275.052,200.994 C275.052,200.994 276.087,104.808 414.285,57.66 C414.285,57.66 462.183,37.602 467.061,14.838 C467.061,14.838 495.303,42.543 541.107,49.53 C637.032,64.164 712.38,118.755 705.204,216.108 C705.204,216.108 707.766,353.175 484.107,337.803 z" fill="#FFFBD7"/>
      <path d="M484.107,337.803 C484.107,337.803 262.755,347.025 275.052,200.994 C275.052,200.994 276.087,104.808 414.285,57.66 C414.285,57.66 462.183,37.602 467.061,14.838 C467.061,14.838 495.303,42.543 541.107,49.53 C637.032,64.164 712.38,118.755 705.204,216.108 C705.204,216.108 707.766,353.175 484.107,337.803 z" fill-opacity="0" stroke="#000000" stroke-width="14.424"/>
    </g>
    <path d="M472.287,15.528 C473.28,17.82 474.819,20.544 476.337,22.989 C477.891,25.485 479.586,27.924 481.38,30.303 C484.974,35.055 488.97,39.549 493.284,43.749 C501.909,52.158 511.77,59.403 522.39,65.403 C543.666,77.466 567.819,84.429 592.371,87.687 C567.66,86.121 542.808,80.862 520.023,69.957 C508.65,64.53 497.841,57.711 488.106,49.449 C483.237,45.324 478.644,40.833 474.408,35.973 C472.296,33.537 470.268,31.014 468.357,28.371 C466.431,25.668 464.685,23.115 462.966,19.83 C461.649,17.316 462.621,14.211 465.138,12.894 C467.652,11.577 470.757,12.552 472.074,15.066 C472.131,15.177 472.182,15.285 472.23,15.396 L472.287,15.528" fill="#000000"/>
    <path d="M475.107,23.514 C472.995,31.74 471.717,40.731 471.222,49.506 C470.751,58.335 471.09,67.245 472.731,75.933 C474.372,84.606 477.321,93.114 482.19,100.578 C487.014,108.054 493.833,114.312 501.858,118.623 C493.476,115.092 485.871,109.398 480.108,102.081 C474.3,94.785 470.325,86.103 467.739,77.13 C465.144,68.13 463.902,58.794 463.521,49.458 C463.191,40.062 463.575,30.867 465.084,21.276 C465.525,18.468 468.159,16.551 470.964,16.995 C473.769,17.433 475.689,20.067 475.245,22.872 C475.221,23.034 475.188,23.19 475.149,23.343 L475.107,23.514" fill="#000000"/>
    <path d="M470.505,28.77 C464.292,35.535 458.169,42.579 452.202,49.677 C446.232,56.79 440.397,64.023 434.751,71.403 C429.108,78.786 423.648,86.313 418.521,94.071 C413.412,101.835 408.591,109.818 404.619,118.272 C407.802,109.488 411.9,101.022 416.319,92.757 C420.75,84.492 425.544,76.422 430.533,68.475 C435.528,60.531 440.73,52.716 446.082,45.003 C451.449,37.281 456.906,29.694 462.66,22.143 C464.382,19.884 467.607,19.449 469.866,21.171 C472.125,22.893 472.56,26.118 470.838,28.377 C470.742,28.5 470.643,28.62 470.541,28.731 L470.505,28.77" fill="#000000"/>
    <g>
      <path d="M254.607,484.803 C254.607,484.803 33.255,494.025 45.552,347.994 C45.552,347.994 46.587,251.808 184.785,204.66 C184.785,204.66 232.683,184.602 237.561,161.838 C237.561,161.838 265.803,189.543 311.607,196.53 C407.532,211.164 482.88,265.752 475.704,363.108 C475.704,363.108 478.266,500.175 254.607,484.803 z" fill="#000000"/>
      <path d="M254.607,484.803 C254.607,484.803 33.255,494.025 45.552,347.994 C45.552,347.994 46.587,251.808 184.785,204.66 C184.785,204.66 232.683,184.602 237.561,161.838 C237.561,161.838 265.803,189.543 311.607,196.53 C407.532,211.164 482.88,265.752 475.704,363.108 C475.704,363.108 478.266,500.175 254.607,484.803 z" fill-opacity="0" stroke="#000000" stroke-width="24" stroke-linecap="round" stroke-linejoin="round"/>
    </g>
    <path d="M238.128,164.679 C238.128,164.679 265.701,225.219 362.871,234.687" fill="#000000"/>
    <path d="M249.021,159.651 C249.033,159.822 249.327,160.536 249.543,161.055 L250.332,162.801 C250.896,163.986 251.514,165.189 252.174,166.389 C253.491,168.789 254.964,171.174 256.542,173.511 C259.704,178.188 263.304,182.688 267.246,186.936 C275.127,195.447 284.355,202.974 294.474,209.358 C314.736,222.195 338.43,230.298 362.871,234.687 C338.055,234.252 312.735,230.133 288.939,220.005 C277.062,214.959 265.623,208.425 255.144,200.262 C249.903,196.182 244.914,191.697 240.249,186.762 C237.921,184.29 235.668,181.71 233.52,178.971 C232.446,177.6 231.396,176.19 230.37,174.72 L228.84,172.434 C228.315,171.594 227.88,170.937 227.232,169.707 L225.444,166.332 C222.21,160.218 224.544,152.634 230.661,149.4 C236.778,146.163 244.359,148.497 247.593,154.614 C248.439,156.207 248.904,157.962 249.021,159.651" fill="#000000"/>
    <path d="M240.594,169.395 C240.594,169.395 224.067,242.403 272.358,265.623" fill="#000000"/>
    <path d="M252.306,172.011 C251.715,173.574 251.085,175.764 250.545,177.735 C249.999,179.763 249.492,181.824 249.039,183.906 C248.127,188.064 247.395,192.288 246.87,196.536 C245.829,205.029 245.568,213.651 246.57,222.135 C247.575,230.604 249.843,238.995 254.082,246.573 C258.279,254.154 264.573,260.793 272.358,265.623 C263.736,262.617 255.612,257.298 249.216,250.083 C242.778,242.901 238.119,234.102 234.897,224.928 C231.669,215.721 229.821,206.097 228.87,196.428 C228.399,191.586 228.162,186.726 228.141,181.842 C228.129,179.397 228.177,176.949 228.282,174.48 C228.408,171.954 228.522,169.659 228.882,166.776 L228.954,166.215 C229.788,159.573 235.842,154.866 242.484,155.7 C249.123,156.531 253.83,162.588 252.999,169.227 C252.879,170.181 252.627,171.15 252.306,172.011" fill="#000000"/>
    <path d="M237.081,172.458 C237.081,172.458 190.794,227.157 175.119,265.272" fill="#000000"/>
    <path d="M246.249,180.204 C239.73,186.438 233.16,193.122 226.794,199.803 C220.413,206.514 214.152,213.357 208.071,220.362 C201.993,227.367 196.086,234.531 190.497,241.95 C184.92,249.378 179.622,257.04 175.119,265.272 C177.774,256.263 181.392,247.479 185.343,238.878 C189.312,230.274 193.659,221.838 198.213,213.519 C202.773,205.197 207.552,196.995 212.49,188.877 C217.458,180.738 222.468,172.788 227.916,164.712 C231.645,159.186 239.148,157.728 244.674,161.457 C250.2,165.186 251.655,172.689 247.929,178.215 C247.449,178.926 246.906,179.568 246.315,180.141 L246.249,180.204" fill="#000000"/>
    <g>
      <path d="M254.607,484.803 C254.607,484.803 33.255,494.025 45.552,347.994 C45.552,347.994 46.587,251.808 184.785,204.66 C184.785,204.66 232.683,184.602 237.561,161.838 C237.561,161.838 265.803,189.543 311.607,196.53 C407.532,211.164 482.88,265.752 475.704,363.108 C475.704,363.108 478.266,500.175 254.607,484.803 z" fill="#FFFBD7"/>
      <path d="M254.607,484.803 C254.607,484.803 33.255,494.025 45.552,347.994 C45.552,347.994 46.587,251.808 184.785,204.66 C184.785,204.66 232.683,184.602 237.561,161.838 C237.561,161.838 265.803,189.543 311.607,196.53 C407.532,211.164 482.88,265.752 475.704,363.108 C475.704,363.108 478.266,500.175 254.607,484.803 z" fill-opacity="0" stroke="#000000" stroke-width="14.424"/>
    </g>
    <path d="M242.787,162.528 C243.78,164.82 245.319,167.544 246.837,169.989 C248.391,172.485 250.086,174.924 251.88,177.303 C255.474,182.055 259.47,186.549 263.784,190.749 C272.409,199.158 282.27,206.403 292.89,212.403 C314.166,224.466 338.319,231.429 362.871,234.687 C338.16,233.121 313.308,227.862 290.523,216.957 C279.15,211.53 268.341,204.711 258.606,196.449 C253.737,192.324 249.144,187.833 244.908,182.973 C242.796,180.537 240.768,178.014 238.857,175.371 C236.931,172.668 235.185,170.115 233.466,166.83 C232.149,164.316 233.121,161.211 235.638,159.894 C238.152,158.577 241.257,159.552 242.574,162.066 C242.631,162.177 242.682,162.285 242.73,162.396 L242.787,162.528" fill="#000000"/>
    <path d="M245.607,170.514 C243.498,178.74 242.217,187.731 241.722,196.506 C241.251,205.335 241.59,214.245 243.231,222.933 C244.872,231.606 247.821,240.114 252.69,247.578 C257.514,255.054 264.333,261.312 272.358,265.623 C263.976,262.092 256.374,256.398 250.608,249.081 C244.8,241.785 240.825,233.103 238.239,224.13 C235.644,215.13 234.402,205.794 234.021,196.458 C233.691,187.062 234.075,177.867 235.584,168.276 C236.025,165.468 238.659,163.551 241.464,163.995 C244.269,164.433 246.189,167.067 245.745,169.872 C245.721,170.034 245.688,170.19 245.649,170.343 L245.607,170.514" fill="#000000"/>
    <path d="M241.005,175.77 C234.792,182.535 228.669,189.579 222.702,196.677 C216.732,203.79 210.897,211.023 205.251,218.403 C199.608,225.786 194.148,233.313 189.021,241.071 C183.912,248.835 179.091,256.818 175.119,265.272 C178.302,256.488 182.4,248.022 186.819,239.757 C191.25,231.492 196.044,223.422 201.033,215.475 C206.028,207.531 211.23,199.716 216.582,192.003 C221.949,184.281 227.406,176.694 233.16,169.143 C234.882,166.884 238.107,166.449 240.366,168.171 C242.625,169.893 243.06,173.118 241.338,175.377 C241.242,175.5 241.143,175.62 241.041,175.731 L241.005,175.77" fill="#000000"/>
    <g>
      <path d="M638.607,565.803 C638.607,565.803 417.255,575.025 429.552,428.994 C429.552,428.994 430.587,332.808 568.785,285.66 C568.785,285.66 616.683,265.602 621.561,242.838 C621.561,242.838 649.803,270.543 695.607,277.53 C791.532,292.164 866.88,346.752 859.704,444.108 C859.704,444.108 862.266,581.175 638.607,565.803 z" fill="#000000"/>
      <path d="M638.607,565.803 C638.607,565.803 417.255,575.025 429.552,428.994 C429.552,428.994 430.587,332.808 568.785,285.66 C568.785,285.66 616.683,265.602 621.561,242.838 C621.561,242.838 649.803,270.543 695.607,277.53 C791.532,292.164 866.88,346.752 859.704,444.108 C859.704,444.108 862.266,581.175 638.607,565.803 z" fill-opacity="0" stroke="#000000" stroke-width="24" stroke-linecap="round" stroke-linejoin="round"/>
    </g>
    <path d="M622.125,245.679 C622.125,245.679 649.701,306.219 746.871,315.687" fill="#000000"/>
    <path d="M633.024,240.651 C633.036,240.822 633.327,241.536 633.546,242.055 L634.329,243.801 C634.896,244.986 635.514,246.189 636.177,247.389 C637.488,249.789 638.964,252.174 640.542,254.511 C643.704,259.188 647.304,263.688 651.246,267.936 C659.127,276.447 668.355,283.974 678.474,290.358 C698.736,303.195 722.43,311.298 746.871,315.687 C722.055,315.252 696.735,311.133 672.939,301.005 C661.059,295.959 649.623,289.425 639.144,281.262 C633.903,277.182 628.914,272.697 624.249,267.762 C621.921,265.29 619.671,262.71 617.52,259.971 C616.446,258.6 615.396,257.19 614.367,255.72 L612.84,253.434 C612.315,252.594 611.883,251.937 611.232,250.707 L609.444,247.332 C606.21,241.218 608.544,233.634 614.661,230.4 C620.778,227.163 628.359,229.497 631.593,235.614 C632.439,237.207 632.904,238.962 633.024,240.651" fill="#000000"/>
    <path d="M624.594,250.395 C624.594,250.395 608.067,323.403 656.358,346.623" fill="#000000"/>
    <path d="M636.306,253.011 C635.712,254.574 635.085,256.764 634.548,258.735 C633.999,260.763 633.492,262.824 633.039,264.906 C632.127,269.064 631.395,273.288 630.87,277.536 C629.829,286.029 629.568,294.651 630.57,303.135 C631.575,311.604 633.843,319.995 638.079,327.573 C642.279,335.154 648.573,341.793 656.358,346.623 C647.736,343.617 639.609,338.298 633.216,331.083 C626.778,323.901 622.119,315.102 618.897,305.928 C615.669,296.721 613.821,287.097 612.87,277.428 C612.399,272.586 612.165,267.726 612.141,262.842 C612.129,260.397 612.177,257.949 612.282,255.48 C612.408,252.954 612.522,250.659 612.885,247.776 L612.954,247.215 C613.788,240.573 619.842,235.866 626.484,236.7 C633.123,237.531 637.827,243.588 636.996,250.227 C636.879,251.181 636.627,252.15 636.306,253.011" fill="#000000"/>
    <path d="M621.081,253.458 C621.081,253.458 574.794,308.157 559.119,346.272" fill="#000000"/>
    <path d="M630.246,261.204 C623.73,267.438 617.16,274.122 610.794,280.803 C604.413,287.514 598.155,294.357 592.071,301.362 C585.993,308.367 580.086,315.531 574.497,322.95 C568.92,330.378 563.619,338.04 559.119,346.272 C561.774,337.263 565.392,328.479 569.343,319.878 C573.309,311.274 577.659,302.838 582.213,294.519 C586.776,286.197 591.552,277.995 596.49,269.877 C601.458,261.738 606.468,253.788 611.919,245.712 C615.645,240.186 623.148,238.728 628.674,242.457 C634.2,246.186 635.655,253.689 631.929,259.215 C631.446,259.926 630.909,260.568 630.315,261.141 L630.246,261.204" fill="#000000"/>
    <g>
      <path d="M638.607,565.803 C638.607,565.803 417.255,575.025 429.552,428.994 C429.552,428.994 430.587,332.808 568.785,285.66 C568.785,285.66 616.683,265.602 621.561,242.838 C621.561,242.838 649.803,270.543 695.607,277.53 C791.532,292.164 866.88,346.752 859.704,444.108 C859.704,444.108 862.266,581.175 638.607,565.803 z" fill="#FFFBD7"/>
      <path d="M638.607,565.803 C638.607,565.803 417.255,575.025 429.552,428.994 C429.552,428.994 430.587,332.808 568.785,285.66 C568.785,285.66 616.683,265.602 621.561,242.838 C621.561,242.838 649.803,270.543 695.607,277.53 C791.532,292.164 866.88,346.752 859.704,444.108 C859.704,444.108 862.266,581.175 638.607,565.803 z" fill-opacity="0" stroke="#000000" stroke-width="14.424"/>
    </g>
    <path d="M626.79,243.528 C627.78,245.82 629.319,248.544 630.837,250.989 C632.391,253.485 634.086,255.924 635.88,258.303 C639.474,263.055 643.47,267.549 647.784,271.749 C656.409,280.158 666.27,287.403 676.89,293.403 C698.166,305.466 722.319,312.429 746.871,315.687 C722.16,314.121 697.305,308.862 674.523,297.957 C663.15,292.53 652.341,285.711 642.606,277.449 C637.737,273.324 633.147,268.833 628.911,263.973 C626.796,261.537 624.768,259.014 622.857,256.371 C620.931,253.668 619.185,251.115 617.466,247.83 C616.149,245.316 617.121,242.211 619.638,240.894 C622.155,239.577 625.26,240.552 626.571,243.066 C626.631,243.177 626.685,243.285 626.73,243.396 L626.79,243.528" fill="#000000"/>
    <path d="M629.607,251.514 C627.498,259.74 626.214,268.731 625.722,277.506 C625.248,286.335 625.59,295.245 627.231,303.933 C628.869,312.606 631.821,321.114 636.693,328.578 C641.514,336.054 648.333,342.312 656.358,346.623 C647.976,343.092 640.371,337.398 634.608,330.081 C628.8,322.785 624.825,314.103 622.236,305.13 C619.647,296.13 618.402,286.794 618.021,277.458 C617.691,268.062 618.075,258.867 619.581,249.276 C620.028,246.468 622.659,244.551 625.464,244.995 C628.272,245.433 630.189,248.067 629.745,250.872 C629.718,251.034 629.691,251.19 629.649,251.343 L629.607,251.514" fill="#000000"/>
    <path d="M625.002,256.77 C618.792,263.535 612.669,270.579 606.702,277.677 C600.732,284.79 594.897,292.023 589.251,299.403 C583.608,306.786 578.151,314.313 573.024,322.071 C567.912,329.835 563.091,337.818 559.119,346.272 C562.302,337.488 566.403,329.022 570.819,320.757 C575.25,312.492 580.044,304.422 585.036,296.475 C590.028,288.531 595.23,280.716 600.579,273.003 C605.949,265.281 611.406,257.694 617.163,250.143 C618.882,247.884 622.107,247.449 624.363,249.171 C626.625,250.893 627.06,254.118 625.335,256.377 C625.242,256.5 625.143,256.62 625.041,256.731 L625.002,256.77" fill="#000000"/>
    <g>
      <path d="M9,322.5 L12,538.5 C12,538.5 81,729 538.5,709.5 C538.5,709.5 829.5,705 891,517.5 L894,307.5 C894,307.5 867,552 496.5,535.5 C496.5,535.5 163.5,567 9,322.5 z" fill="#DBAE6C"/>
      <path d="M9,322.5 L12,538.5 C12,538.5 81,729 538.5,709.5 C538.5,709.5 829.5,705 891,517.5 L894,307.5 C894,307.5 867,552 496.5,535.5 C496.5,535.5 163.5,567 9,322.5 z" fill-opacity="0" stroke="#000000" stroke-width="14.424" stroke-linecap="round" stroke-linejoin="round"/>
    </g>
    <path d="M22.5,385.5 C28.023,394.278 34.536,402.369 41.319,410.169 C48.099,417.978 55.287,425.424 62.79,432.528 C77.793,446.742 94.041,459.585 111.105,471.162 C145.131,494.514 182.484,512.763 221.322,526.464 C260.211,540.078 300.468,549.702 341.286,555.426 C382.086,561.324 423.381,563.679 464.64,563.283 C464.778,563.283 464.916,563.289 465.054,563.301 L465.129,563.307 C484.767,565.068 504.855,565.527 524.76,565.314 C544.704,565.086 564.636,563.94 584.49,562.089 C624.189,558.327 663.588,550.965 701.568,538.935 C739.446,526.824 775.941,509.391 807.279,484.725 C822.984,472.497 837.318,458.436 849.654,442.725 C861.966,427.002 872.334,409.71 880.5,391.377 C866.052,428.898 841.083,462.249 809.943,488.034 C778.671,513.822 741.861,532.212 703.671,545.286 C665.391,558.438 625.437,566.037 585.315,570.321 C565.236,572.463 545.061,573.546 524.88,573.888 C504.663,574.164 484.572,573.795 464.229,572.04 L464.715,572.061 C423.066,572.391 381.327,569.865 340.068,563.706 C298.866,557.373 258.051,547.62 218.991,532.869 C179.943,518.217 142.497,499.026 108.606,474.726 C91.746,462.477 75.783,448.995 61.143,434.208 C46.575,419.403 32.97,403.437 22.5,385.5" fill="#9E754E"/>
    <path d="M22.5,423.696 C28.068,432.408 34.632,440.418 41.46,448.134 C48.291,455.859 55.518,463.218 63.063,470.229 C78.153,484.257 94.467,496.911 111.582,508.302 C145.713,531.273 183.093,549.156 221.901,562.566 C260.76,575.889 300.93,585.3 341.643,590.886 C382.338,596.637 423.507,598.941 464.64,598.542 C464.778,598.539 464.916,598.545 465.054,598.557 L465.129,598.563 C484.767,600.327 504.855,600.786 524.76,600.573 C544.704,600.345 564.636,599.199 584.49,597.348 C624.189,593.583 663.585,586.221 701.568,574.191 C739.443,562.08 775.938,544.65 807.276,519.981 C822.984,507.753 837.318,493.695 849.651,477.981 C861.966,462.261 872.331,444.969 880.5,426.636 C866.055,464.157 841.083,497.511 809.946,523.293 C778.671,549.081 741.861,567.474 703.671,580.548 C665.391,593.703 625.437,601.296 585.315,605.583 C565.236,607.719 545.064,608.805 524.88,609.15 C504.663,609.426 484.572,609.054 464.229,607.299 L464.715,607.32 C423.195,607.644 381.594,605.184 340.449,599.163 C299.361,592.974 258.639,583.434 219.612,568.98 C180.597,554.622 143.118,535.803 109.119,511.881 C92.202,499.821 76.167,486.528 61.437,471.924 C46.779,457.296 33.069,441.504 22.5,423.696" fill="#9E754E"/>
    <path d="M22.5,467.772 C28.164,476.343 34.827,484.188 41.751,491.736 C48.675,499.287 55.995,506.469 63.621,513.294 C78.885,526.941 95.322,539.223 112.545,550.221 C146.88,572.424 184.308,589.584 223.047,602.43 C261.84,615.18 301.848,624.144 342.348,629.478 C382.833,634.947 423.75,637.146 464.64,636.735 C464.778,636.735 464.916,636.741 465.051,636.75 L465.129,636.759 C484.767,638.52 504.855,638.979 524.76,638.769 C544.704,638.538 564.636,637.398 584.49,635.538 C624.189,631.779 663.582,624.408 701.565,612.381 C739.44,600.27 775.938,582.846 807.273,558.174 C822.978,545.946 837.315,531.891 849.648,516.177 C861.963,500.457 872.331,483.165 880.5,464.832 C866.055,502.356 841.086,535.71 809.949,561.495 C778.674,587.283 741.867,605.679 703.674,618.753 C665.394,631.908 625.437,639.495 585.315,643.785 C565.236,645.915 545.064,647.007 524.88,647.349 C504.663,647.625 484.572,647.253 464.229,645.498 L464.715,645.522 C423.456,645.831 382.122,643.5 341.202,637.749 C300.339,631.824 259.806,622.728 220.845,608.859 C181.902,595.074 144.369,576.993 110.151,553.833 C93.12,542.166 76.947,529.245 62.031,515.013 C47.196,500.751 33.273,485.307 22.5,467.772" fill="#9E754E"/>
    <path d="M23.964,508.908 C29.793,517.17 36.639,524.64 43.731,531.798 C50.826,538.959 58.308,545.73 66.081,552.135 C81.63,564.945 98.307,576.33 115.671,586.473 C150.318,606.942 187.713,622.488 226.191,634.056 C264.714,645.537 304.254,653.517 344.187,658.266 C384.111,663.123 424.389,665.07 464.64,664.644 C464.778,664.641 464.916,664.647 465.051,664.659 L465.129,664.665 C484.767,666.429 504.855,666.888 524.76,666.678 C544.704,666.441 564.636,665.316 584.49,663.438 C624.189,659.691 663.579,652.296 701.559,640.275 C739.434,628.167 775.935,610.752 807.261,586.074 C822.969,573.852 837.309,559.797 849.642,544.086 C861.957,528.369 872.325,511.077 880.5,492.747 C866.061,530.274 841.092,563.628 809.958,589.422 C778.677,615.201 741.873,633.609 703.68,646.686 C665.4,659.847 625.437,667.413 585.315,671.715 C565.236,673.824 545.064,674.931 524.88,675.27 C504.663,675.546 484.572,675.174 464.226,673.419 L464.715,673.44 C424.128,673.707 383.469,671.7 343.155,666.525 C302.883,661.215 262.869,653.079 224.181,640.503 C185.508,628.017 147.987,611.592 113.442,590.154 C96.243,579.339 79.803,567.309 64.569,553.905 C49.425,540.471 35.1,525.831 23.964,508.908" fill="#9E754E"/>
  </g>
</svg>
