<svg width="86" height="86" viewBox="0 0 86 86" fill="none" xmlns="http://www.w3.org/2000/svg">
<path d="M21.3028 85.4103L0.73247 64.8399L13.0667 52.5057L15.2764 54.7155L5.43312 64.5587L12.3837 71.5092L21.3028 62.5901L23.5126 64.7998L14.5934 73.7189L23.7938 82.9194L21.3028 85.4103ZM36.1782 70.535L33.5667 73.1464L20.5495 45.0229L23.1208 42.4516L51.2444 55.4688L48.6329 58.0802L25.1698 46.9112L25.0091 47.0719L36.1782 70.535ZM29.1071 61.5354L39.6334 51.0092L41.8431 53.2189L31.3168 63.7451L29.1071 61.5354ZM54.4485 52.2647L33.8781 31.6943L36.369 29.2034L46.5739 39.4082L46.8149 39.1671L45.8507 19.7217L49.105 16.4674L49.7478 34.3861L69.6754 37.0378L66.6621 40.051L49.9487 37.6404L50.2701 43.1044L56.9394 49.7737L54.4485 52.2647ZM72.8995 33.8136L52.3292 13.2432L64.7437 0.828695L66.9534 3.0384L57.0298 12.962L63.9804 19.9125L73.2611 10.6318L75.4708 12.8415L66.1901 22.1223L73.1808 29.113L83.2651 19.0287L85.4748 21.2384L72.8995 33.8136Z" fill="white" fill-opacity="0.62"/>
</svg>
