<svg width="24" height="24" viewBox="0 0 24 24" fill="none" xmlns="http://www.w3.org/2000/svg">
<path d="M12 7.45455C9.58909 7.45455 7.63636 9.36078 7.63636 11.7143C7.63636 14.0678 9.58909 15.974 12 15.974C14.4109 15.974 16.3636 14.0678 16.3636 11.7143C16.3636 9.36078 14.4109 7.45455 12 7.45455ZM21.7527 10.6494C21.2509 6.20857 17.64 2.68364 13.0909 2.19377V1.06494C13.0909 0.479221 12.6 0 12 0C11.4 0 10.9091 0.479221 10.9091 1.06494V2.19377C6.36 2.68364 2.74909 6.20857 2.24727 10.6494H1.09091C0.490909 10.6494 0 11.1286 0 11.7143C0 12.3 0.490909 12.7792 1.09091 12.7792H2.24727C2.74909 17.22 6.36 20.7449 10.9091 21.2348V22.3636C10.9091 22.9494 11.4 23.4286 12 23.4286C12.6 23.4286 13.0909 22.9494 13.0909 22.3636V21.2348C17.64 20.7449 21.2509 17.22 21.7527 12.7792H22.9091C23.5091 12.7792 24 12.3 24 11.7143C24 11.1286 23.5091 10.6494 22.9091 10.6494H21.7527ZM12 19.1688C7.77818 19.1688 4.36364 15.8356 4.36364 11.7143C4.36364 7.59299 7.77818 4.25974 12 4.25974C16.2218 4.25974 19.6364 7.59299 19.6364 11.7143C19.6364 15.8356 16.2218 19.1688 12 19.1688Z" fill="#030303"/>
</svg>
