<svg width="183" height="144" viewBox="0 0 183 144" fill="none" xmlns="http://www.w3.org/2000/svg">
<path d="M48.9407 4.03441C50.53 4.82907 51.4469 6.08218 51.6914 7.79375C51.9971 9.50532 51.5692 11.0641 50.4078 12.47C49.6131 13.5703 48.5739 14.1816 47.2903 14.3038C46.0677 14.4261 44.8146 14.1816 43.5309 13.5703C42.0639 12.8979 40.5051 12.3783 38.8547 12.0115C37.2654 11.6448 35.5844 11.4614 33.8117 11.4614C30.5108 11.4614 27.5461 11.981 24.9176 13.0201C22.3503 14.0593 20.1497 15.5569 18.3159 17.513C16.482 19.408 15.0761 21.6697 14.0981 24.2982C13.1812 26.9266 12.7227 29.8302 12.7227 33.0088C12.7227 36.7376 13.2423 39.9773 14.2815 42.7281C15.3817 45.4788 16.8794 47.7711 18.7743 49.6049C20.6693 51.4387 22.9004 52.8141 25.4678 53.731C28.0351 54.5868 30.8164 55.0147 33.8117 55.0147C35.4621 55.0147 37.1125 54.8619 38.763 54.5562C40.4134 54.2506 42.0027 53.7004 43.5309 52.9058C44.8146 52.2945 46.0677 52.0806 47.2903 52.2639C48.5739 52.4473 49.6437 53.0892 50.4995 54.1895C51.722 55.7176 52.1499 57.307 51.7831 58.9574C51.4775 60.5467 50.5606 61.7081 49.0324 62.4417C47.4431 63.2363 45.7926 63.9087 44.0811 64.4589C42.4306 64.9479 40.7496 65.3147 39.0381 65.5592C37.3265 65.8648 35.5844 66.0176 33.8117 66.0176C29.4105 66.0176 25.2233 65.3146 21.25 63.9087C17.3378 62.5028 13.823 60.4245 10.7055 57.6737C7.64913 54.923 5.2346 51.4999 3.4619 47.4043C1.6892 43.2477 0.802856 38.4492 0.802856 33.0088C0.802856 28.302 1.59751 23.9619 3.18683 19.9887C4.83727 16.0154 7.12954 12.5922 10.0637 9.71926C13.0589 6.78514 16.5737 4.52343 20.6081 2.93412C24.6426 1.28367 29.0437 0.458456 33.8117 0.458456C36.5013 0.458456 39.1298 0.764092 41.6971 1.37537C44.2645 1.98664 46.679 2.87299 48.9407 4.03441Z" fill="url(#paint0_linear_1_90)"/>
<path d="M67.4318 0.916911C68.8989 0.916911 70.1826 1.46706 71.2828 2.56735C72.4443 3.60652 73.025 4.92076 73.025 6.51007V59.5075C73.025 61.0969 72.4443 62.4417 71.2828 63.542C70.1214 64.5811 68.7766 65.1007 67.2484 65.1007C65.5369 65.1007 64.1615 64.5811 63.1223 63.542C62.0832 62.4417 61.5636 61.0969 61.5636 59.5075V6.51007C61.5636 4.92076 62.1137 3.60652 63.214 2.56735C64.3143 1.46706 65.7203 0.916911 67.4318 0.916911ZM108.051 0.916911C109.763 0.916911 111.138 1.46706 112.177 2.56735C113.216 3.60652 113.736 4.92076 113.736 6.51007V59.5075C113.736 61.0969 113.186 62.4417 112.085 63.542C111.046 64.5811 109.64 65.1007 107.868 65.1007C106.401 65.1007 105.086 64.5811 103.925 63.542C102.825 62.4417 102.274 61.0969 102.274 59.5075V6.51007C102.274 4.92076 102.855 3.60652 104.017 2.56735C105.178 1.46706 106.523 0.916911 108.051 0.916911ZM67.1567 27.599H108.051V38.1435H67.1567V27.599Z" fill="url(#paint1_linear_1_90)"/>
<path d="M182.215 33.0088C182.215 37.5934 181.451 41.8723 179.923 45.8456C178.394 49.8189 176.224 53.3337 173.413 56.39C170.662 59.3853 167.361 61.7387 163.51 63.4503C159.72 65.1618 155.563 66.0176 151.04 66.0176C146.517 66.0176 142.36 65.1618 138.57 63.4503C134.78 61.7387 131.479 59.3853 128.667 56.39C125.917 53.3337 123.777 49.8189 122.249 45.8456C120.721 41.8723 119.957 37.5934 119.957 33.0088C119.957 28.4243 120.721 24.1453 122.249 20.1721C123.777 16.1988 125.917 12.7145 128.667 9.71926C131.479 6.66289 134.78 4.27892 138.57 2.56735C142.36 0.855783 146.517 0 151.04 0C155.563 0 159.72 0.855783 163.51 2.56735C167.361 4.27892 170.662 6.66289 173.413 9.71926C176.224 12.7145 178.394 16.1988 179.923 20.1721C181.451 24.1453 182.215 28.4243 182.215 33.0088ZM170.295 33.0088C170.295 28.9133 169.47 25.2151 167.819 21.9142C166.169 18.5522 163.907 15.8931 161.034 13.9371C158.161 11.981 154.83 11.0029 151.04 11.0029C147.25 11.0029 143.919 11.981 141.046 13.9371C138.173 15.8931 135.911 18.5216 134.26 21.8225C132.671 25.1234 131.877 28.8521 131.877 33.0088C131.877 37.1043 132.671 40.8331 134.26 44.1951C135.911 47.496 138.173 50.1245 141.046 52.0806C143.919 54.0366 147.25 55.0147 151.04 55.0147C154.83 55.0147 158.161 54.0366 161.034 52.0806C163.907 50.1245 166.169 47.496 167.819 44.1951C169.47 40.8331 170.295 37.1043 170.295 33.0088Z" fill="url(#paint2_linear_1_90)"/>
<path d="M36.1011 78.4177C41.9693 78.4177 46.3399 79.7931 49.2129 82.5438C52.0859 85.2946 53.5224 89.3596 53.5224 94.7388C53.5224 97.6118 52.8194 100.149 51.4135 102.349C50.0075 104.489 47.9292 106.17 45.1785 107.392C42.4277 108.554 39.0352 109.134 35.0008 109.134L35.3675 105.008C37.2625 105.008 39.4325 105.283 41.8776 105.833C44.3227 106.322 46.6761 107.239 48.9378 108.584C51.2607 109.868 53.1556 111.702 54.6227 114.086C56.1509 116.408 56.9149 119.404 56.9149 123.071C56.9149 127.106 56.2425 130.407 54.8977 132.974C53.6141 135.541 51.9025 137.528 49.763 138.934C47.6236 140.34 45.3313 141.318 42.8862 141.868C40.4411 142.357 38.0877 142.602 35.826 142.602H12.9949C11.4056 142.602 10.0608 142.082 8.96048 141.043C7.92132 139.942 7.40173 138.598 7.40173 137.008V110.51V84.0109C7.40173 82.4216 7.92132 81.1074 8.96048 80.0682C10.0608 78.9679 11.4056 78.4177 12.9949 78.4177H36.1011ZM34.4506 89.2373H18.1296L19.3216 87.7702V104.366L18.2213 103.541H34.7257C36.4984 103.541 38.0877 102.96 39.4936 101.799C40.8996 100.638 41.6025 98.9566 41.6025 96.756C41.6025 94.1275 40.9301 92.2325 39.5853 91.0711C38.3017 89.8486 36.5901 89.2373 34.4506 89.2373ZM35.1842 114.361H18.4964L19.3216 113.627V132.974L18.4047 132.057H35.826C38.6378 132.057 40.869 131.324 42.5194 129.856C44.1699 128.328 44.9951 126.067 44.9951 123.071C44.9951 120.321 44.445 118.334 43.3447 117.111C42.2444 115.889 40.9301 115.125 39.4019 114.819C37.8738 114.513 36.4678 114.361 35.1842 114.361Z" fill="url(#paint3_linear_1_90)"/>
<path d="M91.023 92.8133L71.2178 139.392C70.7899 140.554 70.1175 141.471 69.2006 142.143C68.3448 142.754 67.3973 143.06 66.3581 143.06C64.7077 143.06 63.4851 142.602 62.6905 141.685C61.8958 140.768 61.4985 139.637 61.4985 138.292C61.4985 137.742 61.5902 137.161 61.7736 136.55L84.6047 81.7186C85.0937 80.4961 85.8272 79.5486 86.8053 78.8762C87.8444 78.2038 88.9447 77.9287 90.1061 78.051C91.2064 78.051 92.215 78.3872 93.132 79.0596C94.11 79.6709 94.813 80.5572 95.2408 81.7186L117.797 135.45C118.102 136.244 118.255 136.978 118.255 137.65C118.255 139.301 117.705 140.615 116.605 141.593C115.566 142.571 114.404 143.06 113.121 143.06C112.02 143.06 111.012 142.724 110.095 142.051C109.239 141.379 108.567 140.462 108.078 139.301L88.364 93.3634L91.023 92.8133ZM74.0602 128.206L79.1032 117.662H103.86L105.602 128.206H74.0602Z" fill="url(#paint4_linear_1_90)"/>
<path d="M155.875 78.4177C161.744 78.4177 166.114 79.7931 168.987 82.5438C171.86 85.2946 173.297 89.3596 173.297 94.7388C173.297 97.6118 172.594 100.149 171.188 102.349C169.782 104.489 167.704 106.17 164.953 107.392C162.202 108.554 158.809 109.134 154.775 109.134L155.142 105.008C157.037 105.008 159.207 105.283 161.652 105.833C164.097 106.322 166.45 107.239 168.712 108.584C171.035 109.868 172.93 111.702 174.397 114.086C175.925 116.408 176.689 119.404 176.689 123.071C176.689 127.106 176.017 130.407 174.672 132.974C173.388 135.541 171.677 137.528 169.537 138.934C167.398 140.34 165.106 141.318 162.661 141.868C160.215 142.357 157.862 142.602 155.6 142.602H132.769C131.18 142.602 129.835 142.082 128.735 141.043C127.696 139.942 127.176 138.598 127.176 137.008V84.0109C127.176 82.4216 127.696 81.1074 128.735 80.0682C129.835 78.9679 131.18 78.4177 132.769 78.4177H155.875ZM154.225 89.2373H137.904L139.096 87.7702V104.366L137.996 103.541H154.5C156.273 103.541 157.862 102.96 159.268 101.799C160.674 100.638 161.377 98.9566 161.377 96.756C161.377 94.1275 160.704 92.2325 159.36 91.0711C158.076 89.8486 156.364 89.2373 154.225 89.2373ZM154.958 114.361H138.271L139.096 113.627V132.974L138.179 132.057H155.6C158.412 132.057 160.643 131.324 162.294 129.856C163.944 128.328 164.769 126.067 164.769 123.071C164.769 120.321 164.219 118.334 163.119 117.111C162.019 115.889 160.704 115.125 159.176 114.819C157.648 114.513 156.242 114.361 154.958 114.361Z" fill="url(#paint5_linear_1_90)"/>
<defs>
<linearGradient id="paint0_linear_1_90" x1="91.5089" y1="0" x2="91.5089" y2="66.0176" gradientUnits="userSpaceOnUse">
<stop stop-color="#FDFDFD"/>
<stop offset="0.822917" stop-color="#FFB186"/>
</linearGradient>
<linearGradient id="paint1_linear_1_90" x1="91.5089" y1="0" x2="91.5089" y2="66.0176" gradientUnits="userSpaceOnUse">
<stop stop-color="#FDFDFD"/>
<stop offset="0.822917" stop-color="#FFB186"/>
</linearGradient>
<linearGradient id="paint2_linear_1_90" x1="91.5089" y1="0" x2="91.5089" y2="66.0176" gradientUnits="userSpaceOnUse">
<stop stop-color="#FDFDFD"/>
<stop offset="0.822917" stop-color="#FFB186"/>
</linearGradient>
<linearGradient id="paint3_linear_1_90" x1="92.0455" y1="78.0228" x2="92.0455" y2="143.06" gradientUnits="userSpaceOnUse">
<stop stop-color="#FDFDFD"/>
<stop offset="0.822917" stop-color="#FFB186"/>
</linearGradient>
<linearGradient id="paint4_linear_1_90" x1="92.0455" y1="78.0228" x2="92.0455" y2="143.06" gradientUnits="userSpaceOnUse">
<stop stop-color="#FDFDFD"/>
<stop offset="0.822917" stop-color="#FFB186"/>
</linearGradient>
<linearGradient id="paint5_linear_1_90" x1="92.0455" y1="78.0228" x2="92.0455" y2="143.06" gradientUnits="userSpaceOnUse">
<stop stop-color="#FDFDFD"/>
<stop offset="0.822917" stop-color="#FFB186"/>
</linearGradient>
</defs>
</svg>
