<svg width="36" height="36" viewBox="0 0 36 36" fill="none" xmlns="http://www.w3.org/2000/svg">
<path d="M28.125 14.625C28.125 11.9397 27.0583 9.36435 25.1595 7.46554C23.2606 5.56674 20.6853 4.5 18 4.5C15.3147 4.5 12.7393 5.56674 10.8405 7.46554C8.94174 9.36435 7.875 11.9397 7.875 14.625C7.875 18.7785 11.1982 24.192 18 30.6765C24.8018 24.192 28.125 18.7785 28.125 14.625ZM18 33.75C9.74925 26.2507 5.625 19.8743 5.625 14.625C5.625 11.3429 6.92879 8.19532 9.24955 5.87455C11.5703 3.55379 14.7179 2.25 18 2.25C21.2821 2.25 24.4297 3.55379 26.7504 5.87455C29.0712 8.19532 30.375 11.3429 30.375 14.625C30.375 19.8743 26.2507 26.2507 18 33.75Z" fill="white"/>
<path d="M18 15.75C18.5967 15.75 19.169 15.5129 19.591 15.091C20.0129 14.669 20.25 14.0967 20.25 13.5C20.25 12.9033 20.0129 12.331 19.591 11.909C19.169 11.4871 18.5967 11.25 18 11.25C17.4033 11.25 16.831 11.4871 16.409 11.909C15.9871 12.331 15.75 12.9033 15.75 13.5C15.75 14.0967 15.9871 14.669 16.409 15.091C16.831 15.5129 17.4033 15.75 18 15.75ZM18 18C16.8065 18 15.6619 17.5259 14.818 16.682C13.9741 15.8381 13.5 14.6935 13.5 13.5C13.5 12.3065 13.9741 11.1619 14.818 10.318C15.6619 9.47411 16.8065 9 18 9C19.1935 9 20.3381 9.47411 21.182 10.318C22.0259 11.1619 22.5 12.3065 22.5 13.5C22.5 14.6935 22.0259 15.8381 21.182 16.682C20.3381 17.5259 19.1935 18 18 18ZM30.15 24.75L33.75 33.75H23.625V31.5H12.375V33.75H2.25L5.85 24.75H30.15ZM27.7267 24.75H8.27325L5.57325 31.5H30.4268L27.7267 24.75Z" fill="white"/>
</svg>
