<?xml version="1.0" encoding="UTF-8"?>
<!DOCTYPE svg PUBLIC "-//W3C//DTD SVG 1.1//EN" "http://www.w3.org/Graphics/SVG/1.1/DTD/svg11.dtd">
<svg version="1.1" xmlns="http://www.w3.org/2000/svg" xmlns:xlink="http://www.w3.org/1999/xlink" x="0" y="0" width="1357" height="1162" viewBox="0, 0, 1357, 1162">
  <g id="Layer_1">
    <path d="M1345.51,381.595 C1345.51,508.649 1046.88,611.637 678.497,611.637 C310.115,611.637 11.481,508.649 11.481,381.595 C11.481,254.542 310.115,151.545 678.497,151.545 C1046.88,151.545 1345.51,254.542 1345.51,381.595" fill="#CDDBDF"/>
    <path d="M1345.51,381.595 C1345.51,508.649 1046.88,611.637 678.497,611.637 C310.115,611.637 11.481,508.649 11.481,381.595 C11.481,254.542 310.115,151.545 678.497,151.545 C1046.88,151.545 1345.51,254.542 1345.51,381.595 z" fill-opacity="0" stroke="#1A1919" stroke-width="22.961" stroke-linecap="round" stroke-linejoin="round"/>
    <path d="M1288.32,464.126 C1288.32,402.643 1253.47,349.839 1203.62,326.751 C1192.7,263.382 1144.29,213.978 1083.71,205.441 C1067.31,142.026 1012.7,95.42 947.818,95.42 C946.256,95.42 944.702,95.492 943.148,95.547 C917.31,64.091 879.334,44.191 836.961,44.191 C816.55,44.191 797.172,48.838 779.66,57.134 C754.04,29.061 718.201,11.591 678.497,11.591 C638.791,11.591 602.951,29.061 577.333,57.134 C559.821,48.838 540.442,44.191 520.033,44.191 C477.659,44.191 439.684,64.091 413.845,95.547 C412.288,95.492 410.739,95.42 409.173,95.42 C344.293,95.42 289.688,142.026 273.286,205.441 C212.703,213.978 164.296,263.382 153.377,326.753 C103.529,349.839 68.671,402.643 68.671,464.126 C68.671,528.768 107.191,583.846 161.166,604.85 C198.18,826.022 415.682,995.835 678.494,995.835 C941.31,995.835 1158.81,826.022 1195.82,604.85 C1249.8,583.85 1288.32,528.768 1288.32,464.126" fill="#FFFFFE"/>
    <path d="M1288.32,464.126 C1288.32,402.643 1253.47,349.839 1203.62,326.751 C1192.7,263.382 1144.29,213.978 1083.71,205.441 C1067.31,142.026 1012.7,95.42 947.818,95.42 C946.256,95.42 944.702,95.492 943.148,95.547 C917.31,64.091 879.334,44.191 836.961,44.191 C816.55,44.191 797.172,48.838 779.66,57.134 C754.04,29.061 718.201,11.591 678.497,11.591 C638.791,11.591 602.951,29.061 577.333,57.134 C559.821,48.838 540.442,44.191 520.033,44.191 C477.659,44.191 439.684,64.091 413.845,95.547 C412.288,95.492 410.739,95.42 409.173,95.42 C344.293,95.42 289.688,142.026 273.286,205.441 C212.703,213.978 164.296,263.382 153.377,326.753 C103.529,349.839 68.671,402.643 68.671,464.126 C68.671,528.768 107.191,583.846 161.166,604.85 C198.18,826.022 415.682,995.835 678.494,995.835 C941.31,995.835 1158.81,826.022 1195.82,604.85 C1249.8,583.85 1288.32,528.768 1288.32,464.126 z" fill-opacity="0" stroke="#1A1919" stroke-width="22.961" stroke-linecap="round" stroke-linejoin="round"/>
    <path d="M979.993,922.952 L979.993,1042.63 C979.993,1102.22 845.01,1150.52 678.497,1150.52 C511.986,1150.52 376.999,1102.22 376.999,1042.63 L376.999,922.952 L979.993,922.952" fill="#83CEE8"/>
    <path d="M979.993,922.952 L979.993,1042.63 C979.993,1102.22 845.01,1150.52 678.497,1150.52 C511.986,1150.52 376.999,1102.22 376.999,1042.63 L376.999,922.952 L979.993,922.952 z" fill-opacity="0" stroke="#1A1919" stroke-width="22.961" stroke-linecap="round" stroke-linejoin="round"/>
    <path d="M1345.49,410.733 C1345.5,409.904 1345.51,409.081 1345.51,408.25 L1345.03,408.25 C1345.22,409.076 1345.38,409.904 1345.49,410.733" fill="#80CDE8"/>
    <path d="M1345.49,410.733 C1345.5,409.904 1345.51,409.081 1345.51,408.25 L1345.03,408.25 C1345.22,409.076 1345.38,409.904 1345.49,410.733 z" fill-opacity="0" stroke="#1A1919" stroke-width="22.961" stroke-linecap="round" stroke-linejoin="round"/>
    <path d="M11.964,408.25 L11.481,408.25 C11.481,409.078 11.496,409.9 11.496,410.728 C11.615,409.9 11.774,409.074 11.964,408.25" fill="#80CDE8"/>
    <path d="M11.964,408.25 L11.481,408.25 C11.481,409.078 11.496,409.9 11.496,410.728 C11.615,409.9 11.774,409.074 11.964,408.25 z" fill-opacity="0" stroke="#1A1919" stroke-width="22.961" stroke-linecap="round" stroke-linejoin="round"/>
    <path d="M678.496,627.864 C180.995,627.864 22.953,465.716 11.565,391.363 C15.094,762.758 185.628,1082.64 678.496,1082.64 C1171.36,1082.64 1341.9,762.755 1345.43,391.357 C1334.06,465.713 1175.99,627.864 678.496,627.864" fill="#80CDE8"/>
    <path d="M678.496,627.864 C180.995,627.864 22.953,465.716 11.565,391.363 C15.094,762.758 185.628,1082.64 678.496,1082.64 C1171.36,1082.64 1341.9,762.755 1345.43,391.357 C1334.06,465.713 1175.99,627.864 678.496,627.864 z" fill-opacity="0" stroke="#1A1919" stroke-width="22.961" stroke-linecap="round" stroke-linejoin="round"/>
    <path d="M1073.06,434.548 C1073.06,454.48 1062.67,470.639 1049.84,470.639 C1037.02,470.639 1026.63,454.48 1026.63,434.548 C1026.63,414.616 1037.02,398.457 1049.84,398.457 C1062.67,398.457 1073.06,414.616 1073.06,434.548" fill="#FFFFFE"/>
    <path d="M1073.06,434.548 C1073.06,454.48 1062.67,470.639 1049.84,470.639 C1037.02,470.639 1026.63,454.48 1026.63,434.548 C1026.63,414.616 1037.02,398.457 1049.84,398.457 C1062.67,398.457 1073.06,414.616 1073.06,434.548 z" fill-opacity="0" stroke="#1A1919" stroke-width="17.008" stroke-linecap="round" stroke-linejoin="round"/>
    <path d="M1117.23,351.594 C1117.23,371.527 1106.84,387.683 1094.02,387.683 C1081.19,387.683 1070.79,371.527 1070.79,351.594 C1070.79,331.66 1081.19,315.501 1094.02,315.501 C1106.84,315.501 1117.23,331.66 1117.23,351.594" fill="#FFFFFE"/>
    <path d="M1117.23,351.594 C1117.23,371.527 1106.84,387.683 1094.02,387.683 C1081.19,387.683 1070.79,371.527 1070.79,351.594 C1070.79,331.66 1081.19,315.501 1094.02,315.501 C1106.84,315.501 1117.23,331.66 1117.23,351.594 z" fill-opacity="0" stroke="#1A1919" stroke-width="17.008" stroke-linecap="round" stroke-linejoin="round"/>
    <path d="M1155.61,470.075 C1155.61,490.008 1145.22,506.165 1132.4,506.165 C1119.57,506.165 1109.18,490.008 1109.18,470.075 C1109.18,450.141 1119.57,433.982 1132.4,433.982 C1145.22,433.982 1155.61,450.141 1155.61,470.075" fill="#FFFFFE"/>
    <path d="M1155.61,470.075 C1155.61,490.008 1145.22,506.165 1132.4,506.165 C1119.57,506.165 1109.18,490.008 1109.18,470.075 C1109.18,450.141 1119.57,433.982 1132.4,433.982 C1145.22,433.982 1155.61,450.141 1155.61,470.075 z" fill-opacity="0" stroke="#1A1919" stroke-width="17.008" stroke-linecap="round" stroke-linejoin="round"/>
    <path d="M501.036,247.659 C474.285,229.188 446.207,233.246 415.626,252.31 C409.519,256.117 404.093,260.502 399.407,265.251 C382.221,256.534 352.947,255.222 330.342,269.314 C306.165,284.383 296.325,312.019 298.321,332.388 C296.864,333.19 295.418,334.021 293.983,334.914 C263.401,353.977 248.762,380.193 256.026,416.646" fill-opacity="0" stroke="#1A1919" stroke-width="22.961" stroke-linecap="round" stroke-linejoin="round"/>
  </g>
</svg>
