<svg id="Icons" xmlns="http://www.w3.org/2000/svg" viewBox="0 0 48 48"><defs><style>.cls-1{fill:#e8f4fa;}.cls-2{fill:#fff;}.cls-3{fill:none;}.cls-3,.cls-9{stroke:#45413c;stroke-linecap:round;stroke-linejoin:round;}.cls-4,.cls-9{fill:#ffe500;}.cls-5{fill:#ebcb00;}.cls-6{fill:#45413c;opacity:0.15;}.cls-7{fill:#f0f0f0;}.cls-8{fill:#fff48c;}.cls-10{fill:#ff6242;}.cls-11{fill:#ff866e;}.cls-12{fill:#bf8256;}.cls-13{fill:#dea47a;}</style></defs><title>548-spaghetti</title><g id="_Group_" data-name="&lt;Group&gt;"><path class="cls-1" d="M45.83,6.83H41.57a9.25,9.25,0,0,0-2.16.26,8.82,8.82,0,0,1-2.16.27H27.62a1.78,1.78,0,0,1-1.49-.8,1.78,1.78,0,0,0-1.49-.8h-7v5.33h7a1.78,1.78,0,0,0,1.49-.8,1.78,1.78,0,0,1,1.49-.8h9.63a8.82,8.82,0,0,1,2.16.27,9.25,9.25,0,0,0,2.16.26h4.26a1.6,1.6,0,1,0,0-3.19Z"/><path id="_Path_" data-name="&lt;Path&gt;" class="cls-2" d="M26.13,8a2,2,0,0,0,1.49.6h9.63a12.06,12.06,0,0,0,2.16-.2,11.89,11.89,0,0,1,2.16-.2h4.26a1.62,1.62,0,0,1,1.5.8,1.62,1.62,0,0,0,.1-.54,1.6,1.6,0,0,0-1.6-1.59H41.57a9.19,9.19,0,0,0-2.16.26,8.82,8.82,0,0,1-2.16.27H27.62a1.78,1.78,0,0,1-1.49-.8,1.78,1.78,0,0,0-1.49-.8h-7v1.6h7A2,2,0,0,1,26.13,8Z"/><path class="cls-3" d="M45.83,6.83H41.57a9.25,9.25,0,0,0-2.16.26,8.82,8.82,0,0,1-2.16.27H27.62a1.78,1.78,0,0,1-1.49-.8,1.78,1.78,0,0,0-1.49-.8h-7v5.33h7a1.78,1.78,0,0,0,1.49-.8,1.78,1.78,0,0,1,1.49-.8h9.63a8.82,8.82,0,0,1,2.16.27,9.25,9.25,0,0,0,2.16.26h4.26a1.6,1.6,0,1,0,0-3.19Z"/><path class="cls-4" d="M18.14,10a1.07,1.07,0,0,0-1.06,1.07v4.79a1.07,1.07,0,0,0,2.13,0V11.09A1.07,1.07,0,0,0,18.14,10Z"/><path class="cls-5" d="M18.14,10a1.07,1.07,0,0,0-1.06,1.07v3.44h2.13V11.09A1.07,1.07,0,0,0,18.14,10Z"/><rect id="_Rectangle_" data-name="&lt;Rectangle&gt;" class="cls-4" x="19.21" y="10.02" width="2.13" height="13.31"/><rect id="_Rectangle_2" data-name="&lt;Rectangle&gt;" class="cls-5" x="19.21" y="10.02" width="2.13" height="4.29"/><path class="cls-3" d="M18.14,10a1.07,1.07,0,0,0-1.06,1.07v4.79a1.07,1.07,0,0,0,2.13,0V11.09A1.07,1.07,0,0,0,18.14,10Z"/><rect id="_Rectangle_3" data-name="&lt;Rectangle&gt;" class="cls-3" x="19.21" y="10.02" width="2.13" height="13.31"/><ellipse id="_Ellipse_" data-name="&lt;Ellipse&gt;" class="cls-6" cx="24" cy="45.4" rx="12.25" ry="1.6"/><path id="_Path_2" data-name="&lt;Path&gt;" class="cls-7" d="M44.76,31.59c0,6-9.29,10.91-20.76,10.91S3.24,37.61,3.24,31.59,12.53,21.2,24,21.2,44.76,25.56,44.76,31.59Z"/><path id="_Path_3" data-name="&lt;Path&gt;" class="cls-2" d="M24,24.56c10.37,0,18.94,3.57,20.49,8.71a5.68,5.68,0,0,0,.27-1.68c0-6-9.29-10.39-20.76-10.39S3.24,25.56,3.24,31.59a5.68,5.68,0,0,0,.27,1.68C5.06,28.13,13.63,24.56,24,24.56Z"/><path id="_Path_4" data-name="&lt;Path&gt;" class="cls-3" d="M44.76,31.59c0,6-9.29,10.91-20.76,10.91S3.24,37.61,3.24,31.59,12.53,21.2,24,21.2,44.76,25.56,44.76,31.59Z"/><path id="_Path_5" data-name="&lt;Path&gt;" class="cls-4" d="M38.38,29.3c0,4.35-6.44,7.88-14.38,7.88S9.62,33.65,9.62,29.3,16.06,19.61,24,19.61,38.38,25,38.38,29.3Z"/><path id="_Path_6" data-name="&lt;Path&gt;" class="cls-8" d="M24,22.29c7.12,0,13,4.3,14.16,8.32a4.5,4.5,0,0,0,.22-1.31c0-4.35-6.44-9.69-14.38-9.69S9.62,25,9.62,29.3a4.5,4.5,0,0,0,.22,1.31C11,26.59,16.88,22.29,24,22.29Z"/><path id="_Path_7" data-name="&lt;Path&gt;" class="cls-3" d="M38.38,29.3c0,4.35-6.44,7.88-14.38,7.88S9.62,33.65,9.62,29.3,16.06,19.61,24,19.61,38.38,25,38.38,29.3Z"/><path id="_Path_8" data-name="&lt;Path&gt;" class="cls-9" d="M11.31,33l-.09-.62A7.63,7.63,0,0,1,15,24.93"/><path id="_Path_9" data-name="&lt;Path&gt;" class="cls-3" d="M13.37,34.6l0-.09s-1.15-5.54,3.2-8c0,0-2,6,2.43,7.57"/><path id="_Path_10" data-name="&lt;Path&gt;" class="cls-3" d="M15.48,35.58s3.37.35,4.79-3.73a8.63,8.63,0,0,0-1.06-7.45"/><path id="_Path_11" data-name="&lt;Path&gt;" class="cls-3" d="M19.21,36.64A6.74,6.74,0,0,0,24,31.85a13.73,13.73,0,0,0-.53-8.52"/><path id="_Path_12" data-name="&lt;Path&gt;" class="cls-3" d="M24.53,29.19a8.85,8.85,0,0,0,6.21,2.67"/><path id="_Path_13" data-name="&lt;Path&gt;" class="cls-3" d="M36.25,33.45a6.86,6.86,0,0,0,0-4.79,5.59,5.59,0,0,0-3.73-3.2c2,3.11,1.46,10.65-3.73,11.18S24,32.38,24,32.38c2.09,2.93,6,2.36,6.92-1.06A5.47,5.47,0,0,0,29.86,26"/><path id="_Path_14" data-name="&lt;Path&gt;" class="cls-10" d="M24.53,18.54c-8.07,0-10.87,3.46-11.18,5.86s1.91,3.72,4.26,3.19,2.75,3.51,8,3.2,4.08-3.15,7.45-4.26c2.12-.7,4-2.67,1.07-4.79A14.09,14.09,0,0,0,24.53,18.54Z"/><path id="_Path_15" data-name="&lt;Path&gt;" class="cls-11" d="M24.53,20.7a14.09,14.09,0,0,1,9.59,3.2A4.64,4.64,0,0,1,35.25,25c.62-.91.53-2.08-1.13-3.3a14.09,14.09,0,0,0-9.59-3.2c-8.07,0-10.87,3.46-11.18,5.86a3,3,0,0,0,.17,1.45C14.25,23.54,17.23,20.7,24.53,20.7Z"/><path id="_Path_16" data-name="&lt;Path&gt;" class="cls-3" d="M24.53,18.54c-8.07,0-10.87,3.46-11.18,5.86s1.91,3.72,4.26,3.19,2.75,3.51,8,3.2,4.08-3.15,7.45-4.26c2.12-.7,4-2.67,1.07-4.79A14.09,14.09,0,0,0,24.53,18.54Z"/><path id="_Path_17" data-name="&lt;Path&gt;" class="cls-4" d="M17.61,12.15h0a1.06,1.06,0,0,1-1.06-1.06V6.29a1.06,1.06,0,0,1,1.06-1.06h0a1.07,1.07,0,0,1,1.07,1.06v4.8A1.07,1.07,0,0,1,17.61,12.15Z"/><path id="_Path_18" data-name="&lt;Path&gt;" class="cls-4" d="M19.74,12.15h0a1.06,1.06,0,0,1-1.06-1.06V6.29a1.06,1.06,0,0,1,1.06-1.06h0a1.07,1.07,0,0,1,1.07,1.06v4.8A1.07,1.07,0,0,1,19.74,12.15Z"/><path id="_Path_19" data-name="&lt;Path&gt;" class="cls-4" d="M21.87,12.15h0a1.06,1.06,0,0,1-1.06-1.06V5.76A1.05,1.05,0,0,1,21.87,4.7h0a1.06,1.06,0,0,1,1.07,1.06v5.33A1.07,1.07,0,0,1,21.87,12.15Z"/><path id="_Path_20" data-name="&lt;Path&gt;" class="cls-8" d="M17.61,5.23a1.06,1.06,0,0,0-1.06,1.06V8.36a1.07,1.07,0,1,1,2.13,0V6.29A1.07,1.07,0,0,0,17.61,5.23Z"/><path id="_Path_21" data-name="&lt;Path&gt;" class="cls-8" d="M19.74,5.23a1.06,1.06,0,0,0-1.06,1.06V8.36a1.07,1.07,0,1,1,2.13,0V6.29A1.07,1.07,0,0,0,19.74,5.23Z"/><path id="_Path_22" data-name="&lt;Path&gt;" class="cls-8" d="M21.87,4.7a1.05,1.05,0,0,0-1.06,1.06V7.83a1.07,1.07,0,1,1,2.13,0V5.76A1.06,1.06,0,0,0,21.87,4.7Z"/><path id="_Path_23" data-name="&lt;Path&gt;" class="cls-3" d="M17.61,12.15h0a1.06,1.06,0,0,1-1.06-1.06V6.29a1.06,1.06,0,0,1,1.06-1.06h0a1.07,1.07,0,0,1,1.07,1.06v4.8A1.07,1.07,0,0,1,17.61,12.15Z"/><path id="_Path_24" data-name="&lt;Path&gt;" class="cls-3" d="M19.74,12.15h0a1.06,1.06,0,0,1-1.06-1.06V6.29a1.06,1.06,0,0,1,1.06-1.06h0a1.07,1.07,0,0,1,1.07,1.06v4.8A1.07,1.07,0,0,1,19.74,12.15Z"/><path id="_Path_25" data-name="&lt;Path&gt;" class="cls-3" d="M21.87,12.15h0a1.06,1.06,0,0,1-1.06-1.06V5.76A1.05,1.05,0,0,1,21.87,4.7h0a1.06,1.06,0,0,1,1.07,1.06v5.33A1.07,1.07,0,0,1,21.87,12.15Z"/><path class="cls-4" d="M15.48,5.64a1.06,1.06,0,0,0-1.06,1.07v4a1.07,1.07,0,0,0,2.13,0v-4A1.07,1.07,0,0,0,15.48,5.64Z"/><path class="cls-8" d="M15.48,5.64a1.06,1.06,0,0,0-1.06,1.07V8.52a1.07,1.07,0,1,1,2.13,0V6.71A1.07,1.07,0,0,0,15.48,5.64Z"/><path class="cls-3" d="M15.48,5.64a1.06,1.06,0,0,0-1.06,1.07v4a1.07,1.07,0,0,0,2.13,0v-4A1.07,1.07,0,0,0,15.48,5.64Z"/><rect id="_Rectangle_4" data-name="&lt;Rectangle&gt;" class="cls-12" x="18.68" y="21.74" width="3.19" height="2.66" rx="0.53" ry="0.53" transform="translate(4.13 -3.06) rotate(9.59)"/><path id="_Path_26" data-name="&lt;Path&gt;" class="cls-13" d="M18.71,24l.12-.7a.53.53,0,0,1,.61-.43l2.1.35a.49.49,0,0,1,.29.16l.15-.87a.54.54,0,0,0-.44-.62l-2.1-.35a.53.53,0,0,0-.61.43l-.27,1.58A.57.57,0,0,0,18.71,24Z"/><rect id="_Rectangle_5" data-name="&lt;Rectangle&gt;" class="cls-3" x="18.68" y="21.74" width="3.19" height="2.66" rx="0.53" ry="0.53" transform="translate(4.13 -3.06) rotate(9.59)"/><rect id="_Rectangle_6" data-name="&lt;Rectangle&gt;" class="cls-12" x="25.83" y="24.04" width="3.19" height="2.66" rx="0.53" ry="0.53" transform="translate(-7.76 12.8) rotate(-23.11)"/><path id="_Path_27" data-name="&lt;Path&gt;" class="cls-13" d="M26,26.13l1.87-.8a.53.53,0,0,1,.7.28l.26.61.08,0a.54.54,0,0,0,.29-.7L28.58,24a.54.54,0,0,0-.7-.28l-2,.84a.53.53,0,0,0-.28.7Z"/><rect id="_Rectangle_7" data-name="&lt;Rectangle&gt;" class="cls-3" x="25.83" y="24.04" width="3.19" height="2.66" rx="0.53" ry="0.53" transform="translate(-7.76 12.8) rotate(-23.11)"/><rect id="_Rectangle_8" data-name="&lt;Rectangle&gt;" class="cls-12" x="25.28" y="18.01" width="3.19" height="2.66" rx="0.53" ry="0.53" transform="translate(26.07 -13.76) rotate(52.87)"/><path id="_Path_28" data-name="&lt;Path&gt;" class="cls-13" d="M25.62,19.88l.93-.7a.54.54,0,0,1,.75.1l.83,1.11.35-.26a.54.54,0,0,0,.1-.75L27.3,17.69a.54.54,0,0,0-.75-.11l-1.27,1a.53.53,0,0,0-.11.74Z"/><rect id="_Rectangle_9" data-name="&lt;Rectangle&gt;" class="cls-3" x="25.28" y="18.01" width="3.19" height="2.66" rx="0.53" ry="0.53" transform="translate(26.07 -13.76) rotate(52.87)"/></g></svg>