<svg id="Icons" xmlns="http://www.w3.org/2000/svg" viewBox="0 0 48 48"><defs><style>.cls-1{fill:#45413c;opacity:0.15;}.cls-2{fill:#fff;}.cls-3{fill:#f0f0f0;}.cls-4{fill:none;stroke:#45413c;stroke-linecap:round;stroke-linejoin:round;}.cls-5{fill:#ffaa54;}.cls-6{fill:#fc9;}.cls-7{fill:#ff6242;}.cls-8{fill:#ff866e;}</style></defs><title>549-sushi</title><g id="_Group_" data-name="&lt;Group&gt;"><ellipse id="_Ellipse_" data-name="&lt;Ellipse&gt;" class="cls-1" cx="27.1" cy="31.48" rx="19.4" ry="1.71"/><path id="_Path_" data-name="&lt;Path&gt;" class="cls-2" d="M38.56,31.12H15.63a4.53,4.53,0,0,1-4.5-5.05h0a11,11,0,0,1,11-9.79h10a11,11,0,0,1,11,9.79h0A4.53,4.53,0,0,1,38.56,31.12Z"/><path id="_Path_2" data-name="&lt;Path&gt;" class="cls-3" d="M43.06,26.07a11,11,0,0,0-11-9.79h-10a11,11,0,0,0-11,9.79h0a4.53,4.53,0,0,0,.07,1.38,3.46,3.46,0,0,0,2.85.61,36.83,36.83,0,0,1,8.31-.94h9.47a36.83,36.83,0,0,1,8.31.94A3.46,3.46,0,0,0,43,27.45a4.53,4.53,0,0,0,.07-1.38Z"/><path id="_Path_3" data-name="&lt;Path&gt;" class="cls-4" d="M43.06,26.07a4.53,4.53,0,0,1-4.5,5.05H15.63a4.53,4.53,0,0,1-4.5-5.05,11,11,0,0,1,11-9.79h10A11,11,0,0,1,43.06,26.07Z"/><path id="_Path_4" data-name="&lt;Path&gt;" class="cls-5" d="M38.75,25.12a3.07,3.07,0,0,0,3.76-3A6.92,6.92,0,0,0,38.86,16a17.07,17.07,0,0,0-8.07-2H23.4a17.07,17.07,0,0,0-8.07,2,6.91,6.91,0,0,0-3.64,6.1,3.07,3.07,0,0,0,3.75,3,33.19,33.19,0,0,1,7.42-.85h8.47A33.19,33.19,0,0,1,38.75,25.12Z"/><path id="_Path_5" data-name="&lt;Path&gt;" class="cls-6" d="M15.33,18.89a17,17,0,0,1,8.07-2h7.39a17,17,0,0,1,8.07,2,6.92,6.92,0,0,1,3.42,4.36,3.19,3.19,0,0,0,.22-1.12A6.91,6.91,0,0,0,38.86,16a17.07,17.07,0,0,0-8.07-2H23.4a17.07,17.07,0,0,0-8.07,2,6.91,6.91,0,0,0-3.64,6.1,3.19,3.19,0,0,0,.22,1.12A6.92,6.92,0,0,1,15.33,18.89Z"/><path id="_Path_6" data-name="&lt;Path&gt;" class="cls-4" d="M38.75,25.12a3.07,3.07,0,0,0,3.76-3A6.92,6.92,0,0,0,38.86,16a17.07,17.07,0,0,0-8.07-2H23.4a17.07,17.07,0,0,0-8.07,2,6.91,6.91,0,0,0-3.64,6.1,3.07,3.07,0,0,0,3.75,3,33.19,33.19,0,0,1,7.42-.85h8.47A33.19,33.19,0,0,1,38.75,25.12Z"/><path id="_Path_7" data-name="&lt;Path&gt;" class="cls-4" d="M16.21,25l0-.11a17.85,17.85,0,0,1,2.86-6.27A16.72,16.72,0,0,1,24.22,14"/><path id="_Path_8" data-name="&lt;Path&gt;" class="cls-4" d="M23.65,24.27a15,15,0,0,1,2.86-5.7,21.24,21.24,0,0,1,5.61-4.52"/><path id="_Path_9" data-name="&lt;Path&gt;" class="cls-4" d="M32.21,24.27a9.83,9.83,0,0,1,2.86-4.56,39.89,39.89,0,0,1,4.56-2.86l.27-.13"/><ellipse id="_Ellipse_2" data-name="&lt;Ellipse&gt;" class="cls-1" cx="21.66" cy="37.4" rx="19.4" ry="1.71"/><path id="_Path_10" data-name="&lt;Path&gt;" class="cls-2" d="M31.18,37.4H8.24a4.53,4.53,0,0,1-4.5-5h0a11.06,11.06,0,0,1,11-9.79h10a11.05,11.05,0,0,1,11,9.79h0A4.53,4.53,0,0,1,31.18,37.4Z"/><path id="_Path_11" data-name="&lt;Path&gt;" class="cls-3" d="M35.68,32.35a11.05,11.05,0,0,0-11-9.79h-10a11.06,11.06,0,0,0-11,9.79h0a4.46,4.46,0,0,0,.08,1.37,3.4,3.4,0,0,0,2.84.62,37,37,0,0,1,8.32-1h9.47a36.84,36.84,0,0,1,8.31,1,3.43,3.43,0,0,0,2.85-.62,4.46,4.46,0,0,0,.07-1.37Z"/><path id="_Path_12" data-name="&lt;Path&gt;" class="cls-4" d="M35.68,32.35a4.53,4.53,0,0,1-4.5,5H8.24a4.53,4.53,0,0,1-4.5-5,11.06,11.06,0,0,1,11-9.79h10A11.05,11.05,0,0,1,35.68,32.35Z"/><path id="_Path_13" data-name="&lt;Path&gt;" class="cls-7" d="M31.37,31.4a3.07,3.07,0,0,0,3.75-3,6.93,6.93,0,0,0-3.64-6.1,17.07,17.07,0,0,0-8.07-2H16a17.1,17.1,0,0,0-8.07,2,6.93,6.93,0,0,0-3.64,6.1,3.07,3.07,0,0,0,3.76,3,32.48,32.48,0,0,1,7.42-.85h8.46A32.64,32.64,0,0,1,31.37,31.4Z"/><path id="_Path_14" data-name="&lt;Path&gt;" class="cls-8" d="M7.94,25.17a17,17,0,0,1,8.07-2h7.4a17,17,0,0,1,8.07,2,6.87,6.87,0,0,1,3.41,4.36,3,3,0,0,0,.23-1.12,6.93,6.93,0,0,0-3.64-6.1,17.07,17.07,0,0,0-8.07-2H16a17.1,17.1,0,0,0-8.07,2,6.93,6.93,0,0,0-3.64,6.1,3.2,3.2,0,0,0,.23,1.12A6.94,6.94,0,0,1,7.94,25.17Z"/><path id="_Path_15" data-name="&lt;Path&gt;" class="cls-4" d="M31.37,31.4a3.07,3.07,0,0,0,3.75-3,6.93,6.93,0,0,0-3.64-6.1,17.07,17.07,0,0,0-8.07-2H16a17.1,17.1,0,0,0-8.07,2,6.93,6.93,0,0,0-3.64,6.1,3.07,3.07,0,0,0,3.76,3,32.48,32.48,0,0,1,7.42-.85h8.46A32.64,32.64,0,0,1,31.37,31.4Z"/><path id="_Path_16" data-name="&lt;Path&gt;" class="cls-4" d="M8.83,31.23l0-.11a17.8,17.8,0,0,1,2.85-6.28,16.86,16.86,0,0,1,5.14-4.56"/><path id="_Path_17" data-name="&lt;Path&gt;" class="cls-4" d="M16.27,30.55a15,15,0,0,1,2.85-5.71,21.34,21.34,0,0,1,5.62-4.51"/><path id="_Path_18" data-name="&lt;Path&gt;" class="cls-4" d="M24.83,30.55A9.82,9.82,0,0,1,27.68,26a40.54,40.54,0,0,1,4.57-2.86l.26-.14"/></g></svg>