<svg width="36" height="36" viewBox="0 0 36 36" fill="none" xmlns="http://www.w3.org/2000/svg">
<path d="M36 17.982C36 8.055 27.936 0 18 0C8.064 0 0 8.055 0 17.982C0 23.4495 2.484 28.377 6.372 31.6845C6.408 31.7205 6.444 31.7205 6.444 31.7565C6.768 32.0085 7.092 32.2605 7.452 32.5125C7.632 32.6205 7.776 32.7622 7.956 32.9062C10.9307 34.9231 14.4421 36.0008 18.036 36C21.6299 36.0008 25.1413 34.9231 28.116 32.9062C28.296 32.7982 28.44 32.6565 28.62 32.5462C28.944 32.2965 29.304 32.0445 29.628 31.7925C29.664 31.7565 29.7 31.7565 29.7 31.7205C33.516 28.3747 36 23.4495 36 17.982ZM18 33.7342C14.616 33.7342 11.52 32.6542 8.964 30.8565C9 30.5685 9.072 30.2828 9.144 29.9948C9.35851 29.2142 9.67312 28.4648 10.08 27.765C10.476 27.081 10.944 26.469 11.52 25.929C12.06 25.389 12.708 24.8873 13.356 24.4913C14.04 24.0953 14.76 23.8072 15.552 23.5912C16.3502 23.3761 17.1734 23.2679 18 23.2695C20.454 23.2521 22.8178 24.1934 24.588 25.893C25.416 26.721 26.064 27.693 26.532 28.8068C26.784 29.4548 26.964 30.1387 27.072 30.8565C24.4151 32.7244 21.2477 33.7291 18 33.7342ZM12.492 17.0842C12.1748 16.358 12.0153 15.5727 12.024 14.7802C12.024 13.9905 12.168 13.1985 12.492 12.4785C12.816 11.7585 13.248 11.1128 13.788 10.5728C14.328 10.0328 14.976 9.603 15.696 9.279C16.416 8.955 17.208 8.811 18 8.811C18.828 8.811 19.584 8.955 20.304 9.279C21.024 9.603 21.672 10.035 22.212 10.5728C22.752 11.1128 23.184 11.7608 23.508 12.4785C23.832 13.1985 23.976 13.9905 23.976 14.7802C23.976 15.6082 23.832 16.3643 23.508 17.082C23.1953 17.7913 22.7562 18.4379 22.212 18.99C21.6597 19.5334 21.0132 19.9717 20.304 20.2838C18.8164 20.8951 17.1476 20.8951 15.66 20.2838C14.9508 19.9717 14.3043 19.5334 13.752 18.99C13.2071 18.4459 12.7784 17.7968 12.492 17.082V17.0842ZM29.196 29.0228C29.196 28.9508 29.16 28.9148 29.16 28.8428C28.8059 27.7164 28.2841 26.65 27.612 25.6793C26.9393 24.7014 26.1126 23.8389 25.164 23.1255C24.4396 22.5805 23.6543 22.1214 22.824 21.7575C23.2017 21.5083 23.5517 21.2194 23.868 20.8958C24.4047 20.3659 24.8761 19.7737 25.272 19.1318C26.0693 17.8218 26.4811 16.3136 26.46 14.7802C26.4711 13.6452 26.2506 12.5197 25.812 11.4727C25.3789 10.4639 24.7556 9.548 23.976 8.775C23.1976 8.01007 22.2815 7.39933 21.276 6.975C20.2273 6.53714 19.1004 6.31742 17.964 6.32925C16.8275 6.31813 15.7006 6.53861 14.652 6.97725C13.6378 7.40067 12.7195 8.02437 11.952 8.811C11.1871 9.58857 10.5763 10.5039 10.152 11.5087C9.71336 12.5557 9.49287 13.6812 9.504 14.8162C9.504 15.6082 9.612 16.3643 9.828 17.082C10.044 17.838 10.332 18.522 10.728 19.1677C11.088 19.8158 11.592 20.3918 12.132 20.9318C12.456 21.2558 12.816 21.5415 13.212 21.7935C12.3791 22.1671 11.5936 22.6384 10.872 23.1975C9.936 23.9175 9.108 24.7792 8.424 25.7153C7.74508 26.6819 7.22268 27.7495 6.876 28.8787C6.84 28.9508 6.84 29.0228 6.84 29.0588C3.996 26.181 2.232 22.2975 2.232 17.982C2.232 9.315 9.324 2.22975 18 2.22975C26.676 2.22975 33.768 9.315 33.768 17.982C33.7633 22.1219 32.1195 26.0915 29.196 29.0228Z" fill="#FEFEFE"/>
<path d="M36 17.982C36 8.055 27.936 0 18 0C8.064 0 0 8.055 0 17.982C0 23.4495 2.484 28.377 6.372 31.6845C6.408 31.7205 6.444 31.7205 6.444 31.7565C6.768 32.0085 7.092 32.2605 7.452 32.5125C7.632 32.6205 7.776 32.7622 7.956 32.9062C10.9307 34.9231 14.4421 36.0008 18.036 36C21.6299 36.0008 25.1413 34.9231 28.116 32.9062C28.296 32.7982 28.44 32.6565 28.62 32.5462C28.944 32.2965 29.304 32.0445 29.628 31.7925C29.664 31.7565 29.7 31.7565 29.7 31.7205C33.516 28.3747 36 23.4495 36 17.982ZM18 33.7342C14.616 33.7342 11.52 32.6542 8.964 30.8565C9 30.5685 9.072 30.2828 9.144 29.9948C9.35851 29.2142 9.67312 28.4648 10.08 27.765C10.476 27.081 10.944 26.469 11.52 25.929C12.06 25.389 12.708 24.8873 13.356 24.4913C14.04 24.0953 14.76 23.8072 15.552 23.5912C16.3502 23.3761 17.1734 23.2679 18 23.2695C20.454 23.2521 22.8178 24.1934 24.588 25.893C25.416 26.721 26.064 27.693 26.532 28.8068C26.784 29.4548 26.964 30.1387 27.072 30.8565C24.4151 32.7244 21.2477 33.7291 18 33.7342ZM12.492 17.0842C12.1748 16.358 12.0153 15.5727 12.024 14.7802C12.024 13.9905 12.168 13.1985 12.492 12.4785C12.816 11.7585 13.248 11.1128 13.788 10.5728C14.328 10.0328 14.976 9.603 15.696 9.279C16.416 8.955 17.208 8.811 18 8.811C18.828 8.811 19.584 8.955 20.304 9.279C21.024 9.603 21.672 10.035 22.212 10.5728C22.752 11.1128 23.184 11.7608 23.508 12.4785C23.832 13.1985 23.976 13.9905 23.976 14.7802C23.976 15.6082 23.832 16.3643 23.508 17.082C23.1953 17.7913 22.7562 18.4379 22.212 18.99C21.6597 19.5334 21.0132 19.9717 20.304 20.2838C18.8164 20.8951 17.1476 20.8951 15.66 20.2838C14.9508 19.9717 14.3043 19.5334 13.752 18.99C13.2071 18.4459 12.7784 17.7968 12.492 17.082V17.0842ZM29.196 29.0228C29.196 28.9508 29.16 28.9148 29.16 28.8428C28.8059 27.7164 28.2841 26.65 27.612 25.6793C26.9393 24.7014 26.1126 23.8389 25.164 23.1255C24.4396 22.5805 23.6543 22.1214 22.824 21.7575C23.2017 21.5083 23.5517 21.2194 23.868 20.8958C24.4047 20.3659 24.8761 19.7737 25.272 19.1318C26.0693 17.8218 26.4811 16.3136 26.46 14.7802C26.4711 13.6452 26.2506 12.5197 25.812 11.4727C25.3789 10.4639 24.7556 9.548 23.976 8.775C23.1976 8.01007 22.2815 7.39933 21.276 6.975C20.2273 6.53714 19.1004 6.31742 17.964 6.32925C16.8275 6.31813 15.7006 6.53861 14.652 6.97725C13.6378 7.40067 12.7195 8.02437 11.952 8.811C11.1871 9.58857 10.5763 10.5039 10.152 11.5087C9.71336 12.5557 9.49287 13.6812 9.504 14.8162C9.504 15.6082 9.612 16.3643 9.828 17.082C10.044 17.838 10.332 18.522 10.728 19.1677C11.088 19.8158 11.592 20.3918 12.132 20.9318C12.456 21.2558 12.816 21.5415 13.212 21.7935C12.3791 22.1671 11.5936 22.6384 10.872 23.1975C9.936 23.9175 9.108 24.7792 8.424 25.7153C7.74508 26.6819 7.22268 27.7495 6.876 28.8787C6.84 28.9508 6.84 29.0228 6.84 29.0588C3.996 26.181 2.232 22.2975 2.232 17.982C2.232 9.315 9.324 2.22975 18 2.22975C26.676 2.22975 33.768 9.315 33.768 17.982C33.7633 22.1219 32.1195 26.0915 29.196 29.0228Z" fill="#FEFEFE"/>
</svg>
